<svg height="22" viewBox="0 0 22 22" width="22" xmlns="http://www.w3.org/2000/svg"><path d="m54.6561984 10.7500197c0 1.9192664-.4798168 3.6953037-1.4394497 5.3281123s-2.255854 2.9290297-3.8886626 3.8886626-3.4088459 1.4394497-5.3281123 1.4394497c-1.9192665 0-3.6953037-.4798168-5.3281123-1.4394497s-2.9290297-2.255854-3.8886626-3.8886626-1.4394497-3.4088459-1.4394497-5.3281123c0-1.91926651.4798168-3.69530372 1.4394497-5.32811233.9596329-1.6328086 2.255854-2.92902969 3.8886626-3.8886626s3.4088458-1.43944969 5.3281123-1.43944969c1.9192664 0 3.6953037.47981678 5.3281123 1.43944969s2.9290297 2.255854 3.8886626 3.8886626c.9596329 1.63280861 1.4394497 3.40884582 1.4394497 5.32811233zm-13.470671-1.26757513.0644529.02148432zm0 0-.064453-.02148433-.7734357 3.09374266c-.0859373.2291659-.2578119.3151032-.5156237.2578119 0 .0286459-.2864579-.0429687-.859373-.2148433l-.5585924 1.3320281 2.320307.6015611-.4726552 1.9335891 1.1601535.3007805.5156238-1.8906205.9023416.2148433-.4726551 1.9335891 1.1601535.2578119.5156237-1.9335891c1.0885389.2291659 1.9479118.2434892 2.5781189.0429686.7161443-.2291659 1.2317681-.759113 1.5468713-1.58984.4296865-1.2890594.0716146-2.2343696-1.0742162-2.8359307.830727-.2005206 1.3177054-.7734356 1.460934-1.71874589.1145833-.65885238-.0572913-1.23176812-.5156238-1.71874591-.4010404-.37239516-1.0026015-.70182102-1.8046832-.98827889l.4726552-1.93358914-1.1601535-.25781189-.4726551 1.84765185-.9453103-.21484324.4726551-1.89062049-1.1601534-.30078053-.4726552 1.93358914-2.3632756-.55859242-.3007805 1.24609078.4296865.08593729c.2864578.05729131.4153638.0859373.3867178.0859373.4010405.11458328.5872384.34374918.5585924.68749836l-.5585924 2.19140102zm4.7050669 3.50194473c-.1432286.5729151-.6302071.859373-1.4609341.859373-.4296864 0-1.0598935-.1145833-1.8906204-.3437492l-.2578119-.0429686.6445297-2.5781189.3007805.0429687c.830727.2005205 1.4466114.4010405 1.8476519.601561.6874983.3723952.9596329.859373.8164043 1.460934zm.3867178-3.78124094c-.1432286.51562377-.5585924.78775832-1.2460908.81640434-.3723951 0-.9023416-.08593733-1.5898399-.25781192l-.2148433-.0859373.6015611-2.32030697.2148432.04296865c.7161444.17187459 1.2317681.34374918 1.5468713.51562377.5729151.3151032.8020817.74478967.6874984 1.28905943z" fill="#bebbdb" fill-rule="evenodd" transform="translate(-33)"/></svg>