<svg height="20" viewBox="0 0 20 20" width="20" xmlns="http://www.w3.org/2000/svg"><path d="m19.2499541 2.19925881v17.10152169c0 .2864579-.10026.5371081-.3007805.7519514-.2005206.2148432-.4583325.3222648-.7734357.3222648h-4.8984258v-7.4765447h2.4921816l.3867178-2.8788993h-2.8788994v-1.84765188c0-.48697779.0859373-.83072697.2578119-1.03124755.2291659-.25781188.6158837-.38671782 1.1601535-.38671782h1.5468713v-2.6210875c-.6015611-.05729132-1.3463508-.0859373-2.2343697-.0859373-1.1171848 0-2.0195264.32942652-2.7070248.98827889-.6874984.65885238-1.0312475 1.60416263-1.0312475 2.83593074v2.14843242h-2.49218159v2.8788993h2.49218159v7.4765447h-9.19529061c-.3151032 0-.57291508-.1074216-.77343566-.3222648-.20052057-.2148433-.30078053-.4654935-.30078053-.7519514v-17.10152169c0-.3151032.10025996-.57291509.30078053-.77343566.20052058-.20052057.45833246-.30078053.77343566-.30078053h17.10152171c.2864579 0 .5371081.10025996.7519513.30078053.2148433.20052057.3222649.45833246.3222649.77343566z" fill="#bebbdb" fill-rule="evenodd" transform="translate(0 -1)"/></svg>