<svg height="21" viewBox="0 0 22 21" width="22" xmlns="http://www.w3.org/2000/svg"><path d="m219.132795 16.808599c0 .1145833-.078775.1790362-.236327.1933589s-.236328-.035807-.236328-.1503903.071615-.1718746.214844-.1718746c.085937 0 .15039.0143227.193359.0429687.042968.028646.064452.0572913.064452.0859373zm-1.332028-.1718746c.028646-.1145833.114584-.1503903.257812-.1074216.143229.0429686.207682.1002599.193359.1718746-.014322.0716146-.05013.1217442-.107421.1503902-.057292.028646-.114584.028646-.171875 0s-.107422-.0644529-.15039-.1074216c-.042969-.0429686-.050131-.0787756-.021485-.1074216zm1.890621-.0859373c.143229 0 .222005.0429686.236327.1289059.014323.0859373-.05013.157552-.193358.2148433-.057292 0-.107422-.0071617-.150391-.0214844-.042968-.0143226-.071614-.0644529-.085937-.1503902s.05013-.1432286.193359-.1718746zm2.835931-16.45699202c1.947911 0 3.752595.45833246 5.414049 1.37499672 1.661455.91666426 2.964837 2.16275504 3.910147 3.73827234.973956 1.6328086 1.460934 3.42316914 1.460934 5.37108096 0 2.3775983-.666014 4.5045463-1.998042 6.3808441-1.332028 1.8762979-3.072258 3.1725183-5.220691 3.8886626-.229166.0572914-.408202.028646-.537108-.0859373-.128906-.1145832-.193359-.2578118-.193359-.4296864v-3.6093664c0-.9166643-.243489-1.5755173-.730467-1.9765578 1.059894-.1145833 1.847652-.2578119 2.363276-.4296865.802082-.2864579 1.417965-.7161443 1.847652-1.2890594.486978-.7447897.730467-1.7617146.730467-3.05077399 0-.54426975-.10026-1.01692487-.300781-1.41796537-.143228-.28645786-.415363-.64452971-.816404-1.07421618.114583-.28645787.186197-.63020705.214843-1.03124755.028646-.63020705-.071614-1.26041344-.30078-1.89062049-.286458-.08593729-.687499-.02864598-1.203122.17187459-.34375.14322861-.74479.34374918-1.203123.60156107l-.558592.38671783c-.888019-.25781189-1.797522-.38671783-2.728509-.38671783-.930988 0-1.826168.12890594-2.685541.38671783l-.558592-.38671783c-.458332-.25781189-.873696-.45833246-1.246091-.60156107-.515624-.20052057-.902341-.25781188-1.160153-.17187459-.257812.63020705-.358072 1.26041344-.300781 1.89062049 0 .4010405.057292.73046701.171875.9882789-.343749.42968647-.5944.82356596-.751952 1.18163781-.157551.35807184-.236327.80924264-.236327 1.35351239 0 1.28905939.229166 2.29166099.687498 3.00780529.401041.6015611 1.002602 1.0455702 1.804683 1.3320281.515624.1718746 1.28906.3151032 2.320307.4296865-.372395.3437492-.601561.830727-.687498 1.460934-.486978.2291659-.959633.3151032-1.417965.2578119-.74479-.0572913-1.317706-.4440091-1.718746-1.1601535-.171875-.3151032-.401041-.5729151-.687499-.7734356-.20052-.1145833-.415363-.2148433-.644529-.3007806l-.300781-.0429686c-.315103 0-.479817.0501303-.494139.1503902-.014323.10026.05013.2076816.193359.3222649l.214843.1718746c.20052.1145833.40104.3007805.601561.5585924.171875.2005206.315103.4296865.429686.6874984l.171875.3437491c.143229.4296865.415364.759113.816404.9882789.34375.2005206.759113.3294266 1.246091.3867179.343749.028646.701821.0143226 1.074216-.0429687l.472655-.0429686.042969 2.6210875c0 .1718746-.064453.3151032-.193359.4296864-.128906.1145833-.307942.1432287-.537108.0859373-2.177078-.7161443-3.938793-2.0123647-5.285144-3.8886626-1.34635-1.8762978-2.019526-4.0032458-2.019526-6.3808441 0-1.94791182.458332-3.72394969 1.374997-5.32811232.916664-1.60416262 2.177078-2.86457672 3.781241-3.78124098 1.604162-.91666426 3.394523-1.37499672 5.371081-1.37499672zm-6.35936 14.82418342c.057291-.0572913.128906-.0429687.214843.0429686s.10026.157552.042969.2148433c-.057292.0572913-.128906.0429686-.214844-.0429687-.085937-.0859373-.100259-.1575519-.042968-.2148432zm-.472655-.3437492c.057291-.0572913.128906-.064453.214843-.0214843.085937.0429686.114583.1002599.085937.1718746-.028646.0716146-.093099.0787756-.193359.0214843s-.136067-.1145833-.107421-.1718746zm1.417965 1.5039027c.028646-.028646.071615-.035807.128906-.0214844.057291.0143227.107422.0429687.15039.0859373.042969.0429687.071615.093099.085938.1503903.014322.0572913.007161.10026-.021485.1289059-.085937.0859373-.186197.0716147-.30078-.0429686-.057292-.0572913-.085938-.1145833-.085938-.1718746s.014323-.10026.042969-.1289059zm-.515624-.6015611c.057292-.028646.107422-.035807.150391-.0214843.042968.0143226.078775.0501303.107421.1074216.085937.1145833.085937.2005206 0 .2578119-.028646.028646-.064453.028646-.107421 0-.042969-.028646-.093099-.0572913-.150391-.0859373-.057291-.1432286-.057291-.2291659 0-.2578119z" fill="#bebbdb" fill-rule="evenodd" transform="translate(-212)"/></svg>