<svg height="20" viewBox="0 0 20 20" width="20" xmlns="http://www.w3.org/2000/svg"><path d="m140 1.12504262h19.249954v19.24995408h-19.249954zm15.984337 4.55467664v-.21484324h-3.566398l-2.53515 6.35935988-2.921868-6.35935988h-3.738272v.21484324l1.203122 1.46093401c.143228.11458328.20052.25781189.171874.42968648v5.71483015c.028646.2005205-.028646.3867178-.171874.5585924l-1.374997 1.6328086v.2148432h3.867178v-.2148432l-1.374996-1.6328086c-.143229-.1718746-.200521-.3580719-.171875-.5585924v-4.94139449l3.394523 7.34763869h.386718l2.878899-7.34763869v5.88670469c0 .1145833-.028646.2005206-.085937.2578119l-1.031248 1.0312475v.2148433h5.070301v-.2148433l-1.031248-.9882788c-.085937-.0859373-.128906-.1861973-.128906-.3007806v-7.26170142c0-.11458327.042969-.21484323.128906-.30078053z" fill="#bebbdb" fill-rule="evenodd" transform="translate(-140 -1)"/></svg>