<svg height="22" viewBox="0 0 22 22" width="22" xmlns="http://www.w3.org/2000/svg"><path d="m181.679667 12.8554834c-.315103 0-.572915-.10026-.773436-.3007805-.20052-.2005206-.30078-.4440092-.30078-.730467 0-.2864579.10026-.5371081.30078-.7519514.200521-.2148432.451171-.3222648.751951-.3222648.300781 0 .551431.1074216.751952.3222648.20052.2148433.30078.4654935.30078.7519514 0 .2864578-.10026.5299464-.30078.730467-.200521.2005205-.444009.3007805-.730467.3007805zm12.976531-2.1054637c0 1.9192664-.479816 3.6953037-1.439449 5.3281123s-2.255854 2.9290297-3.888663 3.8886626-3.408846 1.4394497-5.328112 1.4394497c-1.919267 0-3.695304-.4798168-5.328113-1.4394497-1.632808-.9596329-2.929029-2.255854-3.888662-3.8886626s-1.43945-3.4088459-1.43945-5.3281123c0-1.91926651.479817-3.69530372 1.43945-5.32811233.959633-1.6328086 2.255854-2.92902969 3.888662-3.8886626 1.632809-.95963291 3.408846-1.43944969 5.328113-1.43944969 1.919266 0 3.695303.47981678 5.328112 1.43944969s2.92903 2.255854 3.888663 3.8886626c.959633 1.63280861 1.439449 3.40884582 1.439449 5.32811233zm-5.671861-1.76171458c-.401041 0-.74479.14322861-1.031248.42968648-1.031247-.71614435-2.263015-1.10286218-3.695303-1.16015349l.730467-3.35155451 2.406244.51562377c0 .3151032.10026.57291508.30078.77343566.200521.20052057.451171.30078053.751952.30078053.30078 0 .551431-.10742162.751951-.32226486.200521-.21484323.300781-.46549346.300781-.75195133s-.10026-.53710809-.300781-.75195133c-.20052-.21484324-.458332-.32226486-.773436-.32226486-.20052 0-.386717.05729132-.558592.17187459-.171875.11458328-.30078.25781189-.386718.42968648l-2.621087-.60156107c-.057292 0-.114584.02148433-.171875.06445298-.057291.04296864-.10026.09309895-.128906.15039026l-.816404 3.69530369c-1.432288.05729131-2.664056.44400914-3.695304 1.16015349-.257812-.28645787-.601561-.42968648-1.031247-.42968648-.458333 0-.823566.17903625-1.095701.53710809-.272134.35807185-.365233.75195129-.279296 1.18163779s.343749.759113.773436.9882789c-.057292.2005206-.085938.4153638-.085938.6445297 0 .7447897.257812 1.4322881.773436 2.0624951.515624.6302071 1.203122 1.1243465 2.062495 1.4824184.859373.3580718 1.804683.537108 2.835931.537108 1.031247 0 1.983719-.1790362 2.857415-.537108.873695-.3580719 1.568355-.8522113 2.083979-1.4824184.515624-.630207.773436-1.3177054.773436-2.0624951l-.085937-.6874983c.429686-.2005206.680336-.5227855.751951-.9667946s-.028646-.83788863-.300781-1.18163781c-.272134-.34374918-.637368-.51562377-1.0957-.51562377zm-2.964837 4.98436308c.028646-.0572913.078776-.0859373.15039-.0859373.071615 0 .136068.028646.193359.0859373.057292.0572913.085938.1217443.085938.193359 0 .0716146-.028646.1360676-.085938.1933589-.315103.3151032-.787758.5299464-1.417965.6445297s-1.260413.1145833-1.89062 0c-.630208-.1145833-1.102863-.3294265-1.417966-.6445297-.057291-.0572913-.085937-.1217443-.085937-.1933589 0-.0716147.028646-.1360677.085937-.193359s.121744-.0859373.193359-.0859373.121744.028646.15039.0859373c.257812.2578119.658853.4296865 1.203122.5156238.54427.0859373 1.088539.0859373 1.632809 0s.94531-.2578119 1.203122-.5156238zm.343749-3.2226485c.286458 0 .529947.1074216.730467.3222648.200521.2148433.300781.4654935.300781.7519514 0 .2864578-.10026.5299464-.300781.730467-.20052.2005205-.45117.3007805-.751951.3007805-.30078 0-.551431-.10026-.751951-.3007805-.200521-.2005206-.300781-.4440092-.300781-.730467 0-.2864579.10026-.5371081.300781-.7519514.20052-.2148432.458332-.3222648.773435-.3222648z" fill="#bebbdb" fill-rule="evenodd" transform="translate(-173)"/></svg>