<svg height="22" viewBox="0 0 22 22" width="22" xmlns="http://www.w3.org/2000/svg"><path d="m79.6562246.09379508c1.9192665 0 3.6953037.47981678 5.3281123 1.43944969s2.9290297 2.255854 3.8886626 3.8886626c.9596329 1.63280861 1.4394497 3.40884582 1.4394497 5.32811233 0 1.9192664-.4798168 3.6953037-1.4394497 5.3281123s-2.255854 2.9290297-3.8886626 3.8886626-3.4088458 1.4394497-5.3281123 1.4394497-3.6953037-.4798168-5.3281123-1.4394497-2.9290297-2.255854-3.8886626-3.8886626-1.4394497-3.4088459-1.4394497-5.3281123c0-1.91926651.4798168-3.69530372 1.4394497-5.32811233.9596329-1.6328086 2.255854-2.92902969 3.8886626-3.8886626s3.4088458-1.43944969 5.3281123-1.43944969zm5.242175 7.30467008c.0572913-.34374918.0071617-.59439941-.1503903-.75195133-.1575519-.15755193-.3509108-.19335892-.5800767-.10742162l-10.2695068 3.99608419c-.3723951.1145833-.5657541.2578119-.5800767.4296865-.0143227.1718746.1360676.3007805.4511708.3867178l2.6210875.8164043 6.1015479-3.82420959c.1432286-.0859373.2578119-.11458328.3437492-.0859373s.0859373.0859373 0 .17187459l-4.9413945 4.4687393-.2148432 2.7070248c.2005206 0 .3867178-.0859373.5585924-.2578118l1.2890595-1.2460908 2.6640561 1.9765578c.5156238.2864578.830727.1432286.9453102-.4296865z" fill="#bebbdb" fill-rule="evenodd" transform="translate(-69)"/></svg>