<svg height="19" viewBox="0 0 22 19" width="22" xmlns="http://www.w3.org/2000/svg"><path d="m123.722609 6.28128032c.028646.11458328.042969.30078054.042969.55859242 0 2.06249508-.501301 4.05337556-1.503903 5.97264206-1.031247 2.0338491-2.477859 3.652335-4.339833 4.8554571-2.033849 1.3463508-4.36848 2.0195265-7.00389 2.0195265-2.520827 0-4.826811-.6731757-6.917952-2.0195265.315103.028646.673176.0429687 1.074216.0429687 2.091141 0 3.967438-.6445297 5.628893-1.9335892-1.002602 0-1.883459-.2936188-2.642572-.8808572s-1.281898-1.3248665-1.568355-2.2128854c.286457.028646.558592.0429687.816404.0429687.40104 0 .802082-.0429687 1.203122-.128906-1.031248-.2291659-1.89062-.759113-2.578119-1.5898399-.687498-.830727-1.031247-1.77603726-1.031247-2.83593078v-.0859373c.630207.37239517 1.303382.57291508 2.019526.60156107-.601561-.42968648-1.088539-.97395623-1.460934-1.63280861s-.558592-1.38215838-.558592-2.1699167.214843-1.53970965.644529-2.255854c1.117185 1.40364271 2.48502 2.52082754 4.103506 3.35155451s3.344393 1.28905943 5.177722 1.37499672c-.057291-.34374918-.085937-.68749836-.085937-1.03124754 0-.80208164.20052-1.55403297.601561-2.255854.40104-.70182102.94531-1.25325243 1.632809-1.65429293.687498-.40104049 1.432288-.60156106 2.234369-.60156106.658853 0 1.267575.12890594 1.826168.38671783.558592.25781188 1.052732.60156106 1.482418 1.03124754 1.031248-.20052058 1.990881-.55859242 2.878899-1.07421619-.343749 1.05989352-1.002601 1.89062049-1.976557 2.49218156.859373-.11458328 1.718746-.35807185 2.578119-.73046701-.630208.91666426-1.38932 1.70442324-2.277339 2.36327561z" fill="#bebbdb" fill-rule="evenodd" transform="translate(-104 -1)"/></svg>